<svg version="1.1" id="Layer_1"
	xmlns="http://www.w3.org/2000/svg" x="0px" y="0px" viewBox="0 0 301.629 301.629">
	<g>
		<path d="M183.594,89.189c0-18.075-14.705-32.78-32.78-32.78s-32.78,14.705-32.78,32.78v60.542
				c-8.694,8.515-14.102,20.372-14.102,33.474c0,25.851,21.031,46.882,46.882,46.882s46.882-21.031,46.882-46.882
				c0-13.102-5.408-24.959-14.102-33.474V89.189z M127.185,89.189c0-13.03,10.601-23.63,23.63-23.63s23.63,10.6,23.63,23.63v53.549
				c-6.944-4.07-15.016-6.416-23.63-6.416s-16.686,2.345-23.63,6.416V89.189z M188.546,183.204
				c0,20.805-16.926,37.732-37.732,37.732c-20.805,0-37.732-16.926-37.732-37.732c0-20.806,16.926-37.732,37.732-37.732
				C171.62,145.472,188.546,162.398,188.546,183.204z"/>
		<rect x="146.24" y="169.102" width="9.15" height="23.504"/>
		<path d="M33.421,0v218.473l117.209,83.156l117.577-83.152V0H33.421z M259.058,213.742l-108.42,76.674l-108.067-76.67V9.15
				h216.487V213.742z"/>
		<rect x="52.098" y="18.803" width="197.433" height="9.15"/>
	</g>
</svg>
